<svg width="526" height="225" viewBox="0 0 526 225" fill="none" xmlns="http://www.w3.org/2000/svg">
<path d="M353.873 135.63C353.873 135.63 347.421 138.665 346.361 138.968C345.302 139.272 339.49 139.832 337.384 134.709C334.916 128.479 333.622 122.119 333.523 115.735C333.314 108.232 331.41 38.778 331.41 34.6102C331.41 30.4423 331.62 27.5289 332.254 26.1059C332.889 24.6829 338.281 14.2666 352.478 2.18117C354.058 1.04479 354.92 -0.0578684 353.286 -0.000543557C351.018 0.0837577 334.188 7.96087 326.527 18.2254C325.06 20.1913 321.78 24.2951 315.969 21.2602C310.157 18.2254 289.329 8.69934 261.623 8.69934C233.918 8.69934 210.612 17.2913 198.432 32.1081C187.324 45.63 180.219 73.3247 218.913 103.11C220.607 104.152 222.504 105.582 220.763 107.457C219.021 109.331 195.392 135.242 192.537 138.102C186.755 143.892 187.276 150.332 187.378 156.746C187.378 157.639 187.413 158.536 187.503 159.443C187.503 159.663 187.425 160.519 187.832 160.664C188.946 161.069 191.148 159.895 192.16 159.653C193.354 159.352 194.614 159.143 195.906 159.032C197.163 158.924 197.965 159.076 197.929 158.206C197.828 155.97 197.199 153.728 196.972 151.492C196.684 148.66 196.17 145.5 199.42 143.102C202.67 140.705 208.23 141.754 211.671 143.44C213.521 144.333 256.446 164.468 257.823 165.122C259.882 163.753 296.2 141.535 297.888 140.523C299.575 139.511 302.227 138.884 303.226 140.344C304.226 141.804 305.848 143.042 306.398 145.584C306.752 147.196 308.146 152.214 312.797 155.326C316.029 157.484 323.791 161.46 324.318 161.46C325.695 160.806 357.236 140.314 358.469 139.569C356.991 138.253 353.873 135.63 353.873 135.63ZM294.111 38.2587C295.517 38.8483 296.668 39.6097 297.478 40.4857C298.287 41.3617 298.734 42.3296 298.785 43.3168C298.947 45.8627 301.323 93.8975 301.323 94.572C301.323 94.572 248.438 94.7979 247.091 94.7979C245.745 94.7979 243.363 93.8132 245.027 92.1171C246.69 90.421 288.084 41.4554 288.958 40.427C289.831 39.3985 292.208 37.4967 294.111 38.2587ZM206.65 47.7713C223.456 19.3651 268.165 27.7548 271.032 28.2943C275.916 29.2082 282.416 31.6967 283.697 34.7316C285.151 38.1778 277.861 42.0826 272.259 42.5817C267.729 42.985 263.144 43.1577 258.559 43.0976C254.118 43.0437 250.347 42.5311 245.194 42.8043C240.735 43.0369 236.755 43.536 233.709 45.5457C230.531 47.6431 230.016 50.0474 229.914 52.6911C229.842 54.657 229.525 56.9331 230.423 58.8518C230.949 59.9848 232.111 61.4719 234.756 58.6124C237.401 55.7529 240.466 53.2542 248.815 53.7297C257.164 54.2052 260.66 54.8627 262.24 56.2318C263.82 57.6008 262.557 60.1029 261.713 61.2359C260.869 62.3689 232.637 95.9006 231.686 96.8548C230.734 97.8091 226.898 102.429 222.57 99.104C220.667 97.6203 189.837 76.1842 206.65 47.7713ZM268.297 145.116L216.064 123.568L270.823 144.971L268.297 145.116ZM301.927 129.348C301.927 129.348 280.285 141.646 277.712 143.197C275.138 144.748 272.959 144.178 270.894 143.376C268.83 142.573 221.343 123.69 219.338 122.742C217.333 121.795 219.548 119.316 220.128 118.601C220.128 118.601 226.79 112.555 227.37 111.992C227.951 111.429 228.903 110.829 229.645 110.829H301.91L301.927 129.348ZM302.161 109.156L231.404 108.842L302.161 108.529V109.156ZM302.161 96.467L244.41 96.1535L302.161 95.8432V96.467Z" fill="white"/>
<path d="M1.52622 180.432C6.00312 178.874 12.102 177.586 20.2059 177.586C32.9782 177.586 40.9804 181.234 40.9804 186.66C40.9804 191.168 35.4561 194.338 27.9268 195.356V195.464C36.4077 196.004 43.2667 199.224 43.2667 204.232C43.2667 212.072 30.0994 214.972 18.2069 214.972C11.9105 214.972 5.243 214.22 0 212.5L2.76514 207.381C5.90735 208.349 12.102 209.583 17.7281 209.583C26.1073 209.583 30.8954 207.331 30.8954 203.891C30.8954 199.275 22.7017 198.094 15.6512 198.094H10.5818V193.158H15.6332C23.0668 193.158 28.8006 190.956 28.8006 187.678C28.8006 184.724 24.7008 182.957 18.2248 182.957C13.2631 182.957 8.05004 184.084 4.39909 185.159L1.52622 180.432Z" fill="white"/>
<path d="M79.483 214.368L78.7228 211.468H78.4355C75.5746 213.491 70.7147 214.958 64.7116 214.958C55.3747 214.958 50.1317 211.144 50.1317 207.172C50.1317 200.566 60.516 197.238 77.6635 197.292V196.86C77.6635 195.144 76.4245 192.298 68.2249 192.298C63.8358 192.304 59.5294 192.971 55.7518 194.23L53.4654 189.934C56.8949 188.754 62.9041 187.624 70.2239 187.624C85.091 187.624 89.3764 192.942 89.3764 198.634V208.076C89.3191 210.176 89.5432 212.276 90.0468 214.358L79.483 214.368ZM77.9627 201.588C69.6673 201.48 61.7549 202.498 61.7549 206.474C61.7549 209.05 64.7116 210.23 68.4284 210.23C70.4317 210.252 72.3957 209.915 74.0394 209.27C75.683 208.624 76.9222 207.702 77.5797 206.636C77.8399 206.167 77.9691 205.677 77.9627 205.186V201.588Z" fill="white"/>
<path d="M101.694 188.538C107.283 188.104 112.918 187.889 118.56 187.894C126.377 187.894 140.484 188.484 140.484 194.5C140.484 197.828 135.905 199.706 130.949 200.3V200.404C137.814 200.994 142.578 203.142 142.578 206.811C142.578 214.007 125.82 214.705 116.465 214.705C110.648 214.705 104.453 214.489 101.694 214.331V188.538ZM113.066 210.392C114.964 210.507 116.872 210.561 118.781 210.554C124.12 210.554 130.602 209.748 130.602 206.686C130.602 203.736 125.455 202.768 118.117 202.768H113.066V210.392ZM113.155 198.796H118.021C124.007 198.796 128.98 197.828 128.98 195.356C128.98 193.262 125.736 192.136 118.805 192.136C116.924 192.145 115.045 192.217 113.179 192.352L113.155 198.796Z" fill="white"/>
<path d="M196.236 201.048C196.236 210.662 184.229 214.958 172.409 214.958C159.241 214.958 149.156 209.856 149.156 201.47C149.156 192.878 159.163 187.614 173.175 187.614C186.994 187.624 196.236 193.104 196.236 201.048ZM161.258 201.318C161.258 206.376 165.645 210.18 172.792 210.18C179.465 210.18 184.134 206.471 184.134 201.21C184.134 197.13 180.896 192.443 172.887 192.443C164.592 192.46 161.258 196.968 161.258 201.311V201.318Z" fill="white"/>
<path d="M244.655 188.218V209.586L249.611 209.694L249.132 222.744H240.155L239.682 214.368H209.157L208.559 222.744H199.581L199.306 209.742L203.496 209.58C205.436 207.912 206.973 206.107 208.068 204.211C209.684 201.162 210.49 197.995 210.462 194.814V188.218H244.655ZM220.637 196.702C220.657 199.44 219.982 202.165 218.632 204.795C217.866 206.431 216.712 208.002 215.202 209.465H233.314V193.144H220.637V196.702Z" fill="white"/>
<path d="M289.448 178.176V190.956C289.448 196.688 289.161 202.016 288.682 206.848L288.874 206.902C292.208 202.822 296.403 198.472 300.599 194.392L317.561 178.176H329.477V214.368H318.608V201.534C318.608 195.842 318.704 191.222 319.47 186.552H319.278C315.982 190.865 312.16 195.046 307.841 199.062L291.639 214.368H278.579V178.176H289.448Z" fill="white"/>
<path d="M376.556 213.562C374.079 214.206 369.219 214.911 363.389 214.911C348.899 214.911 339.448 209.701 339.448 201.595C339.448 193.755 348.977 187.631 365.274 187.631C369.566 187.631 373.947 188.17 376.616 188.868L374.522 193.808C371.736 193.106 368.709 192.76 365.657 192.797C356.68 192.797 351.359 196.506 351.455 201.281C351.455 206.653 357.649 209.711 365.657 209.711C368.829 209.737 371.975 209.393 374.899 208.699L376.556 213.562Z" fill="white"/>
<path d="M396.954 188.218V199.062H398.666L412.976 188.218H426.892L408.404 199.706C414.784 200.246 418.692 203.078 421.84 207.28C423.271 209.212 424.982 212.112 427.083 214.361H414.873C413.629 213.232 412.3 211.299 410.582 208.774C408.104 205.23 404.597 203.513 398.48 203.513H396.954V214.361H385.229V188.218H396.954Z" fill="white"/>
<path d="M433.547 196.928C433.547 193.492 433.362 190.7 433.17 188.231H443.465L444.033 192.257H444.225C447.654 189.303 453.089 187.638 460.139 187.638C470.817 187.638 479.681 192.794 479.681 200.957C479.681 210.399 469.099 214.972 458.517 214.972C452.706 214.972 447.846 213.575 445.464 211.481H445.296V225.013H433.547V196.928ZM445.296 203.412C445.276 204.027 445.405 204.641 445.679 205.236C446.22 206.547 447.531 207.717 449.4 208.555C451.268 209.394 453.585 209.852 455.974 209.856C463.407 209.856 467.788 206.366 467.788 201.21C467.788 196.594 463.784 192.834 456.255 192.834C453.785 192.861 451.404 193.358 449.5 194.246C447.597 195.133 446.283 196.358 445.775 197.72C445.476 198.26 445.315 198.821 445.296 199.386V203.412Z" fill="white"/>
<path d="M515.418 214.368L514.658 211.468H514.371C511.51 213.491 506.65 214.958 500.647 214.958C491.304 214.958 486.061 211.144 486.061 207.172C486.061 200.566 496.451 197.238 513.593 197.292V196.86C513.593 195.144 512.354 192.298 504.16 192.298C499.771 192.304 495.464 192.971 491.687 194.23L489.401 189.934C492.83 188.754 498.833 187.624 506.159 187.624C521.032 187.624 525.312 192.942 525.312 198.634V208.076C525.254 210.176 525.478 212.276 525.982 214.358L515.418 214.368ZM513.892 201.588C505.602 201.48 497.69 202.498 497.69 206.474C497.69 209.05 500.647 210.23 504.364 210.23C506.369 210.253 508.335 209.917 509.981 209.271C511.627 208.626 512.868 207.703 513.527 206.636C513.782 206.166 513.91 205.677 513.904 205.186L513.892 201.588Z" fill="white"/>
</svg>
